<svg id="Confirm" xmlns="http://www.w3.org/2000/svg" width="70" height="70" viewBox="0 0 70 70">
  <path id="Path_6212" data-name="Path 6212" d="M169.82,311.42a7.652,7.652,0,0,1-4.061-1.657,7.507,7.507,0,0,0-2.332-1.207,7.776,7.776,0,0,0-2.713.223,7.427,7.427,0,0,1-4.292-.017,7.612,7.612,0,0,1-3.086-3.064,4.85,4.85,0,0,0-4.282-2.861,5.706,5.706,0,0,1-5.653-5.653,4.85,4.85,0,0,0-2.861-4.282,7.6,7.6,0,0,1-3.064-3.086,7.437,7.437,0,0,1-.017-4.292,7.719,7.719,0,0,0,.223-2.713,7.507,7.507,0,0,0-1.207-2.332,5.8,5.8,0,0,1,0-8.121,7.506,7.506,0,0,0,1.207-2.332,7.775,7.775,0,0,0-.223-2.713,7.427,7.427,0,0,1,.017-4.292,7.612,7.612,0,0,1,3.064-3.086,4.85,4.85,0,0,0,2.861-4.282A5.706,5.706,0,0,1,149.055,250a4.85,4.85,0,0,0,4.282-2.861,7.6,7.6,0,0,1,3.086-3.064,7.437,7.437,0,0,1,4.292-.017,7.721,7.721,0,0,0,2.713.223,7.507,7.507,0,0,0,2.332-1.207,5.8,5.8,0,0,1,8.121,0,7.507,7.507,0,0,0,2.332,1.207,7.775,7.775,0,0,0,2.713-.223,7.427,7.427,0,0,1,4.292.017,7.612,7.612,0,0,1,3.086,3.064A4.85,4.85,0,0,0,190.585,250a5.706,5.706,0,0,1,5.653,5.653,4.85,4.85,0,0,0,2.861,4.282,7.6,7.6,0,0,1,3.064,3.086,7.437,7.437,0,0,1,.017,4.292,7.719,7.719,0,0,0-.223,2.713,7.507,7.507,0,0,0,1.207,2.332,5.8,5.8,0,0,1,0,8.121,7.507,7.507,0,0,0-1.207,2.332,7.775,7.775,0,0,0,.223,2.713,7.427,7.427,0,0,1-.017,4.292A7.612,7.612,0,0,1,199.1,292.9a4.85,4.85,0,0,0-2.861,4.282,5.706,5.706,0,0,1-5.653,5.653A4.85,4.85,0,0,0,186.3,305.7a7.6,7.6,0,0,1-3.086,3.064,7.437,7.437,0,0,1-4.292.017,7.718,7.718,0,0,0-2.713-.223,7.507,7.507,0,0,0-2.332,1.207A7.652,7.652,0,0,1,169.82,311.42Z" transform="translate(-134.82 -241.42)" fill="rgba(8,54,193,0.1)"/>
  <path id="Path_6181" data-name="Path 6181" d="M155.82,283.42a4.591,4.591,0,0,1-2.436-.994,4.505,4.505,0,0,0-1.4-.724,4.668,4.668,0,0,0-1.628.134,4.457,4.457,0,0,1-2.575-.01,4.567,4.567,0,0,1-1.852-1.838,2.91,2.91,0,0,0-2.569-1.717,3.423,3.423,0,0,1-3.392-3.392,2.91,2.91,0,0,0-1.717-2.569,4.558,4.558,0,0,1-1.838-1.852,4.462,4.462,0,0,1-.01-2.575,4.631,4.631,0,0,0,.134-1.628,4.5,4.5,0,0,0-.724-1.4,3.483,3.483,0,0,1,0-4.873,4.5,4.5,0,0,0,.724-1.4,4.665,4.665,0,0,0-.134-1.628,4.456,4.456,0,0,1,.01-2.575,4.567,4.567,0,0,1,1.838-1.852,2.91,2.91,0,0,0,1.717-2.569,3.423,3.423,0,0,1,3.392-3.392,2.91,2.91,0,0,0,2.569-1.717,4.559,4.559,0,0,1,1.852-1.838,4.463,4.463,0,0,1,2.575-.01,4.633,4.633,0,0,0,1.628.134,4.5,4.5,0,0,0,1.4-.724,3.483,3.483,0,0,1,4.873,0,4.5,4.5,0,0,0,1.4.724,4.666,4.666,0,0,0,1.628-.134,4.456,4.456,0,0,1,2.575.01,4.567,4.567,0,0,1,1.852,1.838,2.91,2.91,0,0,0,2.569,1.717,3.423,3.423,0,0,1,3.392,3.392,2.91,2.91,0,0,0,1.717,2.569,4.558,4.558,0,0,1,1.838,1.852,4.462,4.462,0,0,1,.01,2.575,4.632,4.632,0,0,0-.134,1.628,4.5,4.5,0,0,0,.724,1.4,3.483,3.483,0,0,1,0,4.873,4.5,4.5,0,0,0-.724,1.4,4.665,4.665,0,0,0,.134,1.628,4.456,4.456,0,0,1-.01,2.575,4.566,4.566,0,0,1-1.838,1.852,2.91,2.91,0,0,0-1.717,2.569,3.423,3.423,0,0,1-3.392,3.392,2.91,2.91,0,0,0-2.569,1.717,4.558,4.558,0,0,1-1.852,1.838,4.462,4.462,0,0,1-2.575.01,4.632,4.632,0,0,0-1.628-.134,4.505,4.505,0,0,0-1.4.724A4.591,4.591,0,0,1,155.82,283.42Zm-4.209-3.094a3.239,3.239,0,0,1,.634.059,5.486,5.486,0,0,1,1.876.919,2.252,2.252,0,0,0,3.4,0,5.486,5.486,0,0,1,1.876-.919,5.628,5.628,0,0,1,2.14.132,2.188,2.188,0,0,0,3.062-1.282,5.534,5.534,0,0,1,1.4-1.585,5.593,5.593,0,0,1,2.012-.693,2.194,2.194,0,0,0,2.35-2.349,4.146,4.146,0,0,1,2.278-3.408,2.189,2.189,0,0,0,1.282-3.062,5.656,5.656,0,0,1-.132-2.14,5.48,5.48,0,0,1,.919-1.876,2.252,2.252,0,0,0,0-3.4,5.486,5.486,0,0,1-.919-1.876,5.628,5.628,0,0,1,.132-2.14,2.188,2.188,0,0,0-1.282-3.062,4.144,4.144,0,0,1-2.278-3.408,2.194,2.194,0,0,0-2.35-2.35,4.146,4.146,0,0,1-3.408-2.278,2.189,2.189,0,0,0-3.062-1.282,5.64,5.64,0,0,1-2.14.132,5.48,5.48,0,0,1-1.876-.919,2.252,2.252,0,0,0-3.4,0,5.485,5.485,0,0,1-1.876.919,5.627,5.627,0,0,1-2.14-.132,2.188,2.188,0,0,0-3.062,1.282,5.533,5.533,0,0,1-1.4,1.585,5.591,5.591,0,0,1-2.012.693,2.194,2.194,0,0,0-2.35,2.35,4.146,4.146,0,0,1-2.278,3.408,2.189,2.189,0,0,0-1.282,3.062,5.656,5.656,0,0,1,.132,2.14,5.486,5.486,0,0,1-.919,1.876,2.252,2.252,0,0,0,0,3.4,5.486,5.486,0,0,1,.919,1.876,5.627,5.627,0,0,1-.132,2.14,2.189,2.189,0,0,0,1.282,3.062,5.534,5.534,0,0,1,1.585,1.4,5.592,5.592,0,0,1,.693,2.012,2.194,2.194,0,0,0,2.349,2.35,4.146,4.146,0,0,1,3.408,2.278,2.189,2.189,0,0,0,3.062,1.282A7.888,7.888,0,0,1,151.611,280.326Z" transform="matrix(0.985, 0.174, -0.174, 0.985, -72.884, -250.491)" fill="#0836c1" opacity="0.6"/>
  <path id="Path_6184" data-name="Path 6184" d="M327.542,484.172a1.289,1.289,0,0,1-.867-.333l-4.148-3.739a1.295,1.295,0,1,1,1.734-1.923l3.21,2.894,7.088-7.484a1.295,1.295,0,1,1,1.88,1.78l-7.958,8.4A1.29,1.29,0,0,1,327.542,484.172Z" transform="translate(-294.099 -443.184)" fill="#0836c1"/>
</svg>
