<svg id="Icon-Edit" xmlns="http://www.w3.org/2000/svg" width="20" height="20" viewBox="0 0 20 20">
  <circle id="Ellipse_82" data-name="Ellipse 82" cx="10" cy="10" r="10" fill="#fff" opacity="0"/>
  <circle id="Ellipse_85" data-name="Ellipse 85" cx="10" cy="10" r="10" fill="rgba(22,78,226,0.05)" opacity="0"/>
  <g id="Iconly_Two-tone_Edit" data-name="Iconly/Two-tone/Edit" transform="translate(4 3)">
    <g id="Edit" transform="translate(0 0)">
      <path id="Stroke_1" data-name="Stroke 1" d="M0,.5H4.835" transform="translate(7.165 11.5)" fill="none" stroke="#222" stroke-linecap="round" stroke-linejoin="round" stroke-width="1" opacity="0.4"/>
      <path id="Stroke_3" data-name="Stroke 3" d="M6.524.541A1.465,1.465,0,0,1,8.7.424l1.054.836a1.5,1.5,0,0,1,.406,2.163l-6.285,8.11A1.118,1.118,0,0,1,3,11.968L.578,12,.029,9.611a1.15,1.15,0,0,1,.21-.96Z" fill="none" stroke="#222" stroke-linecap="round" stroke-linejoin="round" stroke-width="1"/>
      <path id="Stroke_5" data-name="Stroke 5" d="M0,0,3.635,2.882" transform="translate(5.347 2.06)" fill="none" stroke="#222" stroke-linecap="round" stroke-linejoin="round" stroke-width="1" opacity="0.4"/>
    </g>
  </g>
</svg>
