<svg id="Thumbs_Up" data-name="Thumbs Up" xmlns="http://www.w3.org/2000/svg" width="70" height="70" viewBox="0 0 70 70">
  <circle id="Ellipse_2119" data-name="Ellipse 2119" cx="35" cy="35" r="35" fill="#d1f2d2" opacity="0.4"/>
  <path id="Path_6212" data-name="Path 6212" d="M159.82,291.42a5.466,5.466,0,0,1-2.9-1.183,5.362,5.362,0,0,0-1.665-.862,5.555,5.555,0,0,0-1.938.159,5.3,5.3,0,0,1-3.065-.012,5.437,5.437,0,0,1-2.2-2.188,3.464,3.464,0,0,0-3.059-2.044,4.075,4.075,0,0,1-4.038-4.038,3.464,3.464,0,0,0-2.044-3.059,5.427,5.427,0,0,1-2.188-2.2,5.312,5.312,0,0,1-.012-3.065,5.514,5.514,0,0,0,.159-1.938A5.362,5.362,0,0,0,136,269.32a4.146,4.146,0,0,1,0-5.8,5.362,5.362,0,0,0,.862-1.665,5.554,5.554,0,0,0-.159-1.938,5.3,5.3,0,0,1,.012-3.065,5.437,5.437,0,0,1,2.188-2.2,3.464,3.464,0,0,0,2.044-3.059,4.075,4.075,0,0,1,4.038-4.038,3.464,3.464,0,0,0,3.059-2.044,5.427,5.427,0,0,1,2.2-2.188,5.312,5.312,0,0,1,3.065-.012,5.515,5.515,0,0,0,1.938.159,5.362,5.362,0,0,0,1.665-.862,4.146,4.146,0,0,1,5.8,0,5.363,5.363,0,0,0,1.665.862,5.554,5.554,0,0,0,1.938-.159,5.3,5.3,0,0,1,3.065.012,5.437,5.437,0,0,1,2.2,2.188,3.464,3.464,0,0,0,3.059,2.044,4.075,4.075,0,0,1,4.038,4.038,3.464,3.464,0,0,0,2.044,3.059,5.427,5.427,0,0,1,2.188,2.2,5.312,5.312,0,0,1,.012,3.065,5.514,5.514,0,0,0-.159,1.938,5.362,5.362,0,0,0,.862,1.665,4.146,4.146,0,0,1,0,5.8,5.362,5.362,0,0,0-.862,1.665,5.554,5.554,0,0,0,.159,1.938,5.3,5.3,0,0,1-.012,3.065,5.437,5.437,0,0,1-2.188,2.2,3.464,3.464,0,0,0-2.044,3.059,4.075,4.075,0,0,1-4.038,4.038,3.464,3.464,0,0,0-3.059,2.044,5.427,5.427,0,0,1-2.2,2.188,5.312,5.312,0,0,1-3.065.012,5.514,5.514,0,0,0-1.938-.159,5.362,5.362,0,0,0-1.665.862A5.466,5.466,0,0,1,159.82,291.42Z" transform="translate(-124.82 -231.42)" fill="rgba(28,188,32,0.2)"/>
  <g id="thumb" transform="translate(-128.049 -134.616)">
    <path id="Path_6219" data-name="Path 6219" d="M175.717,167.606a2.521,2.521,0,0,0-2.519-2.519h-5.245a11.1,11.1,0,0,0,1.065-4.492,4.065,4.065,0,0,0-2.545-3.765,2.379,2.379,0,0,0-1.973,0,2.334,2.334,0,0,0-1.246,1.506l-.312,1.22a10.075,10.075,0,0,1-3.376,5.4c-.208.156-.39.286-.6.415a2.271,2.271,0,0,0-1.973-1.142h-3.661a2.272,2.272,0,0,0-2.285,2.285v11.815a2.288,2.288,0,0,0,2.285,2.285h3.661a2.273,2.273,0,0,0,2.077-1.35,24.676,24.676,0,0,0,6.673.961h5.765a2.521,2.521,0,0,0,2.519-2.519,2.482,2.482,0,0,0-.338-1.246,2.532,2.532,0,0,0,1.169-2.129,2.482,2.482,0,0,0-.338-1.246,2.532,2.532,0,0,0,1.169-2.129,2.568,2.568,0,0,0-.649-1.688,2.359,2.359,0,0,0,.675-1.662Zm-18.1,10.776a.632.632,0,0,1-.623.623h-3.661a.632.632,0,0,1-.623-.623V166.568a.632.632,0,0,1,.623-.623h3.661a.632.632,0,0,1,.623.623Zm14-8.258H173.2a.857.857,0,1,1,0,1.714h-1.9a.831.831,0,1,0,0,1.662h1.065a.857.857,0,1,1,0,1.714h-1.662a.831.831,0,1,0,0,1.662h.831a.857.857,0,1,1,0,1.714h-5.791a23.312,23.312,0,0,1-6.466-.935V167.139a8,8,0,0,0,1.3-.857A11.751,11.751,0,0,0,164.551,160l.312-1.22a.574.574,0,0,1,.338-.416.647.647,0,0,1,.545,0,2.36,2.36,0,0,1,1.584,2.259,10.358,10.358,0,0,1-1.48,4.882.878.878,0,0,0,0,.8.853.853,0,0,0,.727.441H173.2a.857.857,0,1,1,0,1.714h-1.584a.831.831,0,0,0,0,1.662Z" fill="#00bc1d"/>
    <path id="Path_6220" data-name="Path 6220" d="M208.643,504.49a1.091,1.091,0,1,1-1.09-1.091,1.091,1.091,0,0,1,1.09,1.091" transform="translate(-52.375 -327.769)" fill="#00bc1d"/>
  </g>
</svg>
