<svg xmlns="http://www.w3.org/2000/svg" width="49.373" height="65" viewBox="0 0 49.373 65">
  <g id="Trash_-_Google_Drive-37" data-name="Trash - Google Drive-37" transform="translate(0 1)">
    <path id="Path_6175" data-name="Path 6175" d="M255.439,55.351H244.61V49.742a2.773,2.773,0,0,1,2.772-2.772h5.284a2.772,2.772,0,0,1,2.772,2.772Z" transform="translate(-225.338 -46.97)" fill="none" stroke="#e02020" stroke-width="2"/>
    <path id="Path_6176" data-name="Path 6176" d="M132.992,101.9h-24.1l3.262,54.9a1.929,1.929,0,0,0,1.988,1.737h36.719a1.929,1.929,0,0,0,1.988-1.737l3.262-54.9H132.992Z" transform="translate(-107.813 -94.536)" fill="#fce8e8"/>
    <path id="Path_6177" data-name="Path 6177" d="M100.85,80.33h49.373v8.518H100.85Z" transform="translate(-100.85 -75.858)" fill="#f9d2d2"/>
    <path id="Path_6178" data-name="Path 6178" d="M150.3,170.67l2.4,44.385m5.932-44.385,1.794,44.385m25.99-44.385-2.4,44.385m-5.932-44.385-1.794,44.385m-7.932-44.385v44.385" transform="translate(-143.672 -154.087)" fill="none" stroke="#e02020" stroke-linecap="round" stroke-width="1"/>
    <path id="Path_6179" data-name="Path 6179" d="M145.87,495.3h37.3v2.969h-37.3Z" transform="translate(-139.834 -435.199)" fill="#fce8e8"/>
  </g>
</svg>
